<svg xmlns="http://www.w3.org/2000/svg" version="1.1" xmlns:xlink="http://www.w3.org/1999/xlink" xmlns:svgjs="http://svgjs.com/svgjs" width="1440" height="560" preserveAspectRatio="none" viewBox="0 0 1440 560"><g mask="url(&quot;#SvgjsMask1031&quot;)" fill="none"><rect width="1440" height="560" x="0" y="0" fill="rgba(35, 41, 50, 1)"></rect><path d="M254.54 104.22 a186.57 186.57 0 1 0 373.14 0 a186.57 186.57 0 1 0 -373.14 0z" fill="rgba(28, 83, 142, 0.4)" class="triangle-float2"></path><path d="M1014.708,376.404C1050.176,375.264,1077.718,348.547,1094.533,317.298C1110.366,287.874,1113.763,252.603,1096.825,223.801C1080.101,195.362,1047.631,183.688,1014.708,181.559C976.491,179.088,932.345,179.472,911.882,211.844C890.556,245.582,904.321,288.885,925.471,322.733C945.186,354.284,977.523,377.599,1014.708,376.404" fill="rgba(28, 83, 142, 0.4)" class="triangle-float2"></path><path d="M-23.342542188306957 5.0528346870025445L85.97401129782358 126.46116706669396 207.38234367751497 17.14461358056343 98.06579019138445-104.26371879912799z" fill="rgba(28, 83, 142, 0.4)" class="triangle-float3"></path><path d="M248.0037305628482 258.63674988170686L120.90104280875771 332.01952087125596 194.28381379830682 459.1222086253465 321.3865015523973 385.73943763579734z" fill="rgba(28, 83, 142, 0.4)" class="triangle-float1"></path><path d="M133.10876216227499 336.7130717751853L165.2496581313043 448.80169661556596 245.1973870026556 304.572175806156z" fill="rgba(28, 83, 142, 0.4)" class="triangle-float3"></path><path d="M1068.7547887407616 91.09340235818371L1115.542320763221 187.25454585223943 1169.1613177632948 110.67868216307232z" fill="rgba(28, 83, 142, 0.4)" class="triangle-float2"></path><path d="M331.3001009659549 497.5221636164743L454.2488694178247 552.4029415900712 443.99083579072294 435.15308070881355z" fill="rgba(28, 83, 142, 0.4)" class="triangle-float3"></path><path d="M205.066,404.533C256.24,404.927,312.509,397.023,338.753,353.089C365.47,308.363,348.751,253.104,322.352,208.19C296.387,164.016,256.299,126.464,205.066,125.644C152.613,124.805,107.326,158.899,81.092,204.329C54.855,249.765,47.278,306.449,74.9,351.056C101.368,393.799,154.792,404.146,205.066,404.533" fill="rgba(28, 83, 142, 0.4)" class="triangle-float3"></path><path d="M700.38 421.19 a158.03 158.03 0 1 0 316.06 0 a158.03 158.03 0 1 0 -316.06 0z" fill="rgba(28, 83, 142, 0.4)" class="triangle-float1"></path><path d="M467.24 237.7 a177.53 177.53 0 1 0 355.06 0 a177.53 177.53 0 1 0 -355.06 0z" fill="rgba(28, 83, 142, 0.4)" class="triangle-float2"></path><path d="M-27.68 536.55 a175.42 175.42 0 1 0 350.84 0 a175.42 175.42 0 1 0 -350.84 0z" fill="rgba(28, 83, 142, 0.4)" class="triangle-float3"></path><path d="M990.1405636488815 99.96305560105134L1107.5209484308023 157.21329451759436 1164.7711873473452 39.832909735673674 1047.3908025654246-17.417329180869345z" fill="rgba(28, 83, 142, 0.4)" class="triangle-float3"></path><path d="M1043.566,257.4C1074.512,256.348,1099.685,234.969,1114.702,207.89C1129.217,181.715,1132.171,150.221,1117.456,124.158C1102.504,97.676,1073.932,83.548,1043.566,81.899C1009.576,80.053,972.066,86.245,954.331,115.3C936.06,145.234,944.875,183.331,963.525,213.031C980.912,240.719,1010.89,258.511,1043.566,257.4" fill="rgba(28, 83, 142, 0.4)" class="triangle-float1"></path></g><defs><mask id="SvgjsMask1031"><rect width="1440" height="560" fill="#ffffff"></rect></mask><style>
            @keyframes float1 {
                0%{transform: translate(0, 0)}
                50%{transform: translate(-10px, 0)}
                100%{transform: translate(0, 0)}
            }

            .triangle-float1 {
                animation: float1 5s infinite;
            }

            @keyframes float2 {
                0%{transform: translate(0, 0)}
                50%{transform: translate(-5px, -5px)}
                100%{transform: translate(0, 0)}
            }

            .triangle-float2 {
                animation: float2 4s infinite;
            }

            @keyframes float3 {
                0%{transform: translate(0, 0)}
                50%{transform: translate(0, -10px)}
                100%{transform: translate(0, 0)}
            }

            .triangle-float3 {
                animation: float3 6s infinite;
            }
        </style></defs></svg>