<!--?xml version="1.0" standalone="no"?-->
              <svg id="sw-js-blob-svg" viewBox="0 0 100 100" xmlns="http://www.w3.org/2000/svg" version="1.1">
                    <defs> 
                        <linearGradient id="sw-gradient" x1="0" x2="1" y1="1" y2="0">
                            <stop id="stop1" stop-color="rgba(255, 255, 255, 1)" offset="0%"></stop>
                            <stop id="stop2" stop-color="rgba(255, 255, 255, 1)" offset="100%"></stop>
                        </linearGradient>
                    </defs>
                <path fill="url(#sw-gradient)" d="M21,-36.9C26.7,-33.1,30.5,-26.5,33.5,-19.8C36.4,-13.2,38.5,-6.6,39.4,0.5C40.4,7.7,40.2,15.4,37.4,22.3C34.6,29.2,29.2,35.2,22.6,38.7C15.9,42.1,8,42.9,0.5,42.1C-7,41.3,-14,38.8,-19.8,34.9C-25.6,31,-30.2,25.5,-34.9,19.5C-39.6,13.4,-44.5,6.7,-45.6,-0.7C-46.8,-8.1,-44.3,-16.1,-39.9,-22.7C-35.5,-29.3,-29.2,-34.5,-22.3,-37.6C-15.3,-40.7,-7.6,-41.7,0,-41.7C7.6,-41.7,15.3,-40.7,21,-36.9Z" width="100%" height="100%" transform="translate(50 50)" stroke-width="0" style="transition: all 0.3s ease 0s;" stroke="url(#sw-gradient)"></path>
              </svg>