<svg id="visual" viewBox="0 0 900 100" width="900" height="100" xmlns="http://www.w3.org/2000/svg" xmlns:xlink="http://www.w3.org/1999/xlink" version="1.1"><rect x="0" y="0" width="900" height="100" fill="#191919"></rect><path d="M0 28L21.5 30C43 32 86 36 128.8 37.7C171.7 39.3 214.3 38.7 257.2 36.8C300 35 343 32 385.8 32.3C428.7 32.7 471.3 36.3 514.2 37.5C557 38.7 600 37.3 642.8 36.7C685.7 36 728.3 36 771.2 34.8C814 33.7 857 31.3 878.5 30.2L900 29L900 0L878.5 0C857 0 814 0 771.2 0C728.3 0 685.7 0 642.8 0C600 0 557 0 514.2 0C471.3 0 428.7 0 385.8 0C343 0 300 0 257.2 0C214.3 0 171.7 0 128.8 0C86 0 43 0 21.5 0L0 0Z" fill="#fa7268"></path><path d="M0 30L21.5 29.2C43 28.3 86 26.7 128.8 26.7C171.7 26.7 214.3 28.3 257.2 28.2C300 28 343 26 385.8 25.5C428.7 25 471.3 26 514.2 27.2C557 28.3 600 29.7 642.8 30.3C685.7 31 728.3 31 771.2 30.5C814 30 857 29 878.5 28.5L900 28L900 0L878.5 0C857 0 814 0 771.2 0C728.3 0 685.7 0 642.8 0C600 0 557 0 514.2 0C471.3 0 428.7 0 385.8 0C343 0 300 0 257.2 0C214.3 0 171.7 0 128.8 0C86 0 43 0 21.5 0L0 0Z" fill="#dc4267"></path><path d="M0 21L21.5 20.3C43 19.7 86 18.3 128.8 18.3C171.7 18.3 214.3 19.7 257.2 19.3C300 19 343 17 385.8 16C428.7 15 471.3 15 514.2 15.7C557 16.3 600 17.7 642.8 17.7C685.7 17.7 728.3 16.3 771.2 16.5C814 16.7 857 18.3 878.5 19.2L900 20L900 0L878.5 0C857 0 814 0 771.2 0C728.3 0 685.7 0 642.8 0C600 0 557 0 514.2 0C471.3 0 428.7 0 385.8 0C343 0 300 0 257.2 0C214.3 0 171.7 0 128.8 0C86 0 43 0 21.5 0L0 0Z" fill="#c62368"></path><path d="M0 12L21.5 12.8C43 13.7 86 15.3 128.8 15.5C171.7 15.7 214.3 14.3 257.2 14C300 13.7 343 14.3 385.8 13.7C428.7 13 471.3 11 514.2 10.5C557 10 600 11 642.8 11.8C685.7 12.7 728.3 13.3 771.2 13C814 12.7 857 11.3 878.5 10.7L900 10L900 0L878.5 0C857 0 814 0 771.2 0C728.3 0 685.7 0 642.8 0C600 0 557 0 514.2 0C471.3 0 428.7 0 385.8 0C343 0 300 0 257.2 0C214.3 0 171.7 0 128.8 0C86 0 43 0 21.5 0L0 0Z" fill="#dc4267"></path><path d="M0 7L21.5 7.2C43 7.3 86 7.7 128.8 8.2C171.7 8.7 214.3 9.3 257.2 8.8C300 8.3 343 6.7 385.8 6.8C428.7 7 471.3 9 514.2 9C557 9 600 7 642.8 6.3C685.7 5.7 728.3 6.3 771.2 7.3C814 8.3 857 9.7 878.5 10.3L900 11L900 0L878.5 0C857 0 814 0 771.2 0C728.3 0 685.7 0 642.8 0C600 0 557 0 514.2 0C471.3 0 428.7 0 385.8 0C343 0 300 0 257.2 0C214.3 0 171.7 0 128.8 0C86 0 43 0 21.5 0L0 0Z" fill="#fa7268"></path></svg>