<svg xmlns="http://www.w3.org/2000/svg" version="1.1" xmlns:xlink="http://www.w3.org/1999/xlink" xmlns:svgjs="http://svgjs.com/svgjs" width="1440" height="560" preserveAspectRatio="none" viewBox="0 0 1440 560"><g mask="url(&quot;#SvgjsMask1036&quot;)" fill="none"><rect width="1440" height="560" x="0" y="0" fill="rgba(81, 46, 95, 1)"></rect><path d="M0,533.472C101.728,520.358,210.733,516.372,290.088,451.385C366.477,388.827,364.31,273.717,418.204,190.987C485.59,87.545,657.365,30.117,644.503,-92.666C631.816,-213.779,458.694,-238.466,365.061,-316.327C289.855,-378.865,242.39,-478.336,148.352,-505.241C54.499,-532.093,-42.383,-490.564,-134.882,-459.364C-224.06,-429.285,-313.899,-396.44,-378.137,-327.658C-443.733,-257.422,-474.92,-164.978,-497.142,-71.478C-521.169,29.619,-537.288,132.938,-511.531,233.608C-482.541,346.912,-443.392,473.789,-342.496,532.935C-241.969,591.865,-115.57,548.371,0,533.472" fill="#351e3e"></path><path d="M1440 1256.461C1568.29 1263.263 1634.622 1100.424 1741.406 1028.997 1845.49 959.376 1989.013 946.578 2058.761 842.579 2131.862 733.579 2141.029 591.798 2121.673 461.99 2102.375 332.575 2042.1979999999999 211.005 1950.644 117.524 1862.1770000000001 27.19500000000005 1745.174-38.24699999999996 1619.372-50.884000000000015 1502.836-62.59100000000001 1400.781 11.471000000000004 1290.609 51.22000000000003 1188.116 88.19900000000001 1078.6390000000001 104.577 994.982 174.39 902.052 251.94099999999997 813.688 347.735 792.494 466.903 771.08 587.308 811.618 714.58 881 815.287 945.134 908.377 1069.72 928.057 1158.4569999999999 998.0899999999999 1260.511 1078.633 1310.173 1249.578 1440 1256.461" fill="#6d3e80"></path></g><defs><mask id="SvgjsMask1036"><rect width="1440" height="560" fill="#ffffff"></rect></mask></defs></svg>