<svg xmlns="http://www.w3.org/2000/svg" version="1.1" xmlns:xlink="http://www.w3.org/1999/xlink" xmlns:svgjs="http://svgjs.com/svgjs" width="1440" height="560" preserveAspectRatio="none" viewBox="0 0 1440 560"><g mask="url(&quot;#SvgjsMask1001&quot;)" fill="none"><rect width="1440" height="560" x="0" y="0" fill="rgba(35, 41, 50, 1)"></rect><path d="M0,615.144C114.707,619.89,209.104,536.938,310.654,483.387C422.475,424.42,578.524,402.999,625.136,285.49C672.013,167.311,564.003,46.642,532.781,-76.602C505.541,-184.126,518.493,-303.047,453.302,-392.789C385.642,-485.929,282.983,-558.225,169.38,-576.857C60.235,-594.757,-38.08,-522.268,-144.102,-490.766C-249.701,-459.39,-378.809,-473.98,-452.489,-392.084C-526.291,-310.053,-500.772,-183.458,-518.558,-74.557C-536.755,36.863,-601.9,150.824,-558.153,254.9C-514.256,359.334,-389.743,396.914,-294.561,458.346C-199.173,519.912,-113.434,610.451,0,615.144" fill="#1c2128"></path><path d="M1440 969.017C1515.432 964.19 1576.902 912.517 1637.607 867.482 1694.68 825.1410000000001 1760.628 783.851 1781.257 715.847 1801.306 649.756 1756.923 584.143 1744.147 516.27 1732.06 452.05899999999997 1747.5529999999999 379.765 1708.1779999999999 327.623 1668.137 274.599 1598.471 256.103 1534.398 238.512 1471.254 221.17700000000002 1405.585 210.461 1342.272 227.16699999999997 1277.9470000000001 244.14 1226.185 287.179 1177.624 332.65 1124.233 382.644 1063.43 432.20799999999997 1047.146 503.516 1030.425 576.737 1057.905 651.9300000000001 1089.1109999999999 720.246 1120.315 788.559 1164.1770000000001 850.419 1225.444 893.855 1288.541 938.5889999999999 1362.812 973.956 1440 969.017" fill="#2a313c"></path></g><defs><mask id="SvgjsMask1001"><rect width="1440" height="560" fill="#ffffff"></rect></mask></defs></svg>