<svg id="visual" viewBox="0 0 960 540" width="960" height="540" xmlns="http://www.w3.org/2000/svg" xmlns:xlink="http://www.w3.org/1999/xlink" version="1.1"><path d="M0 66L14.5 67.8C29 69.7 58 73.3 87.2 69.7C116.3 66 145.7 55 174.8 55.8C204 56.7 233 69.3 262 68.5C291 67.7 320 53.3 349 56C378 58.7 407 78.3 436.2 80.2C465.3 82 494.7 66 523.8 67.8C553 69.7 582 89.3 611 97.3C640 105.3 669 101.7 698 99.8C727 98 756 98 785.2 96.2C814.3 94.3 843.7 90.7 872.8 86.2C902 81.7 931 76.3 945.5 73.7L960 71L960 0L945.5 0C931 0 902 0 872.8 0C843.7 0 814.3 0 785.2 0C756 0 727 0 698 0C669 0 640 0 611 0C582 0 553 0 523.8 0C494.7 0 465.3 0 436.2 0C407 0 378 0 349 0C320 0 291 0 262 0C233 0 204 0 174.8 0C145.7 0 116.3 0 87.2 0C58 0 29 0 14.5 0L0 0Z" fill="#6198ff"></path><path d="M0 158L14.5 167C29 176 58 194 87.2 189.5C116.3 185 145.7 158 174.8 149C204 140 233 149 262 170.5C291 192 320 226 349 235C378 244 407 228 436.2 216.3C465.3 204.7 494.7 197.3 523.8 191C553 184.7 582 179.3 611 189.2C640 199 669 224 698 253.7C727 283.3 756 317.7 785.2 323.2C814.3 328.7 843.7 305.3 872.8 290C902 274.7 931 267.3 945.5 263.7L960 260L960 69L945.5 71.7C931 74.3 902 79.7 872.8 84.2C843.7 88.7 814.3 92.3 785.2 94.2C756 96 727 96 698 97.8C669 99.7 640 103.3 611 95.3C582 87.3 553 67.7 523.8 65.8C494.7 64 465.3 80 436.2 78.2C407 76.3 378 56.7 349 54C320 51.3 291 65.7 262 66.5C233 67.3 204 54.7 174.8 53.8C145.7 53 116.3 64 87.2 67.7C58 71.3 29 67.7 14.5 65.8L0 64Z" fill="#3c80ff"></path><path d="M0 206L14.5 216.8C29 227.7 58 249.3 87.2 251.2C116.3 253 145.7 235 174.8 221.5C204 208 233 199 262 213.3C291 227.7 320 265.3 349 283.3C378 301.3 407 299.7 436.2 289.8C465.3 280 494.7 262 523.8 250.3C553 238.7 582 233.3 611 247.7C640 262 669 296 698 322C727 348 756 366 785.2 364.3C814.3 362.7 843.7 341.3 872.8 328.8C902 316.3 931 312.7 945.5 310.8L960 309L960 258L945.5 261.7C931 265.3 902 272.7 872.8 288C843.7 303.3 814.3 326.7 785.2 321.2C756 315.7 727 281.3 698 251.7C669 222 640 197 611 187.2C582 177.3 553 182.7 523.8 189C494.7 195.3 465.3 202.7 436.2 214.3C407 226 378 242 349 233C320 224 291 190 262 168.5C233 147 204 138 174.8 147C145.7 156 116.3 183 87.2 187.5C58 192 29 174 14.5 165L0 156Z" fill="#0066ff"></path><path d="M0 411L14.5 422.8C29 434.7 58 458.3 87.2 463.8C116.3 469.3 145.7 456.7 174.8 447.7C204 438.7 233 433.3 262 425.2C291 417 320 406 349 406.8C378 407.7 407 420.3 436.2 434.8C465.3 449.3 494.7 465.7 523.8 466.5C553 467.3 582 452.7 611 446.3C640 440 669 442 698 450.2C727 458.3 756 472.7 785.2 468.2C814.3 463.7 843.7 440.3 872.8 434C902 427.7 931 438.3 945.5 443.7L960 449L960 307L945.5 308.8C931 310.7 902 314.3 872.8 326.8C843.7 339.3 814.3 360.7 785.2 362.3C756 364 727 346 698 320C669 294 640 260 611 245.7C582 231.3 553 236.7 523.8 248.3C494.7 260 465.3 278 436.2 287.8C407 297.7 378 299.3 349 281.3C320 263.3 291 225.7 262 211.3C233 197 204 206 174.8 219.5C145.7 233 116.3 251 87.2 249.2C58 247.3 29 225.7 14.5 214.8L0 204Z" fill="#0059dd"></path><path d="M0 541L14.5 541C29 541 58 541 87.2 541C116.3 541 145.7 541 174.8 541C204 541 233 541 262 541C291 541 320 541 349 541C378 541 407 541 436.2 541C465.3 541 494.7 541 523.8 541C553 541 582 541 611 541C640 541 669 541 698 541C727 541 756 541 785.2 541C814.3 541 843.7 541 872.8 541C902 541 931 541 945.5 541L960 541L960 447L945.5 441.7C931 436.3 902 425.7 872.8 432C843.7 438.3 814.3 461.7 785.2 466.2C756 470.7 727 456.3 698 448.2C669 440 640 438 611 444.3C582 450.7 553 465.3 523.8 464.5C494.7 463.7 465.3 447.3 436.2 432.8C407 418.3 378 405.7 349 404.8C320 404 291 415 262 423.2C233 431.3 204 436.7 174.8 445.7C145.7 454.7 116.3 467.3 87.2 461.8C58 456.3 29 432.7 14.5 420.8L0 409Z" fill="#004cbb"></path></svg>