<svg id="visual" viewBox="0 0 960 540" width="960" height="540" xmlns="http://www.w3.org/2000/svg" xmlns:xlink="http://www.w3.org/1999/xlink" version="1.1"><path d="M0 71L14.5 73.7C29 76.3 58 81.7 87.2 79C116.3 76.3 145.7 65.7 174.8 70.2C204 74.7 233 94.3 262 103.3C291 112.3 320 110.7 349 106.2C378 101.7 407 94.3 436.2 99.7C465.3 105 494.7 123 523.8 129.3C553 135.7 582 130.3 611 131.3C640 132.3 669 139.7 698 145.2C727 150.7 756 154.3 785.2 145.3C814.3 136.3 843.7 114.7 872.8 109.2C902 103.7 931 114.3 945.5 119.7L960 125L960 0L945.5 0C931 0 902 0 872.8 0C843.7 0 814.3 0 785.2 0C756 0 727 0 698 0C669 0 640 0 611 0C582 0 553 0 523.8 0C494.7 0 465.3 0 436.2 0C407 0 378 0 349 0C320 0 291 0 262 0C233 0 204 0 174.8 0C145.7 0 116.3 0 87.2 0C58 0 29 0 14.5 0L0 0Z" fill="#004cbb"></path><path d="M0 228L14.5 227C29 226 58 224 87.2 230.3C116.3 236.7 145.7 251.3 174.8 252.3C204 253.3 233 240.7 262 229.8C291 219 320 210 349 211.8C378 213.7 407 226.3 436.2 239.8C465.3 253.3 494.7 267.7 523.8 275.7C553 283.7 582 285.3 611 283.5C640 281.7 669 276.3 698 280.8C727 285.3 756 299.7 785.2 284.3C814.3 269 843.7 224 872.8 203.3C902 182.7 931 186.3 945.5 188.2L960 190L960 123L945.5 117.7C931 112.3 902 101.7 872.8 107.2C843.7 112.7 814.3 134.3 785.2 143.3C756 152.3 727 148.7 698 143.2C669 137.7 640 130.3 611 129.3C582 128.3 553 133.7 523.8 127.3C494.7 121 465.3 103 436.2 97.7C407 92.3 378 99.7 349 104.2C320 108.7 291 110.3 262 101.3C233 92.3 204 72.7 174.8 68.2C145.7 63.7 116.3 74.3 87.2 77C58 79.7 29 74.3 14.5 71.7L0 69Z" fill="#0059dd"></path><path d="M0 309L14.5 312.5C29 316 58 323 87.2 329.3C116.3 335.7 145.7 341.3 174.8 343.2C204 345 233 343 262 325.8C291 308.7 320 276.3 349 266.5C378 256.7 407 269.3 436.2 286.5C465.3 303.7 494.7 325.3 523.8 338.8C553 352.3 582 357.7 611 354.8C640 352 669 341 698 339.2C727 337.3 756 344.7 785.2 335.7C814.3 326.7 843.7 301.3 872.8 291.5C902 281.7 931 287.3 945.5 290.2L960 293L960 188L945.5 186.2C931 184.3 902 180.7 872.8 201.3C843.7 222 814.3 267 785.2 282.3C756 297.7 727 283.3 698 278.8C669 274.3 640 279.7 611 281.5C582 283.3 553 281.7 523.8 273.7C494.7 265.7 465.3 251.3 436.2 237.8C407 224.3 378 211.7 349 209.8C320 208 291 217 262 227.8C233 238.7 204 251.3 174.8 250.3C145.7 249.3 116.3 234.7 87.2 228.3C58 222 29 224 14.5 225L0 226Z" fill="#0066ff"></path><path d="M0 363L14.5 368.3C29 373.7 58 384.3 87.2 388.8C116.3 393.3 145.7 391.7 174.8 390.8C204 390 233 390 262 375.5C291 361 320 332 349 326.5C378 321 407 339 436.2 356.2C465.3 373.3 494.7 389.7 523.8 400.5C553 411.3 582 416.7 611 415.8C640 415 669 408 698 403.5C727 399 756 397 785.2 385.2C814.3 373.3 843.7 351.7 872.8 349.8C902 348 931 366 945.5 375L960 384L960 291L945.5 288.2C931 285.3 902 279.7 872.8 289.5C843.7 299.3 814.3 324.7 785.2 333.7C756 342.7 727 335.3 698 337.2C669 339 640 350 611 352.8C582 355.7 553 350.3 523.8 336.8C494.7 323.3 465.3 301.7 436.2 284.5C407 267.3 378 254.7 349 264.5C320 274.3 291 306.7 262 323.8C233 341 204 343 174.8 341.2C145.7 339.3 116.3 333.7 87.2 327.3C58 321 29 314 14.5 310.5L0 307Z" fill="#3c80ff"></path><path d="M0 541L14.5 541C29 541 58 541 87.2 541C116.3 541 145.7 541 174.8 541C204 541 233 541 262 541C291 541 320 541 349 541C378 541 407 541 436.2 541C465.3 541 494.7 541 523.8 541C553 541 582 541 611 541C640 541 669 541 698 541C727 541 756 541 785.2 541C814.3 541 843.7 541 872.8 541C902 541 931 541 945.5 541L960 541L960 382L945.5 373C931 364 902 346 872.8 347.8C843.7 349.7 814.3 371.3 785.2 383.2C756 395 727 397 698 401.5C669 406 640 413 611 413.8C582 414.7 553 409.3 523.8 398.5C494.7 387.7 465.3 371.3 436.2 354.2C407 337 378 319 349 324.5C320 330 291 359 262 373.5C233 388 204 388 174.8 388.8C145.7 389.7 116.3 391.3 87.2 386.8C58 382.3 29 371.7 14.5 366.3L0 361Z" fill="#6198ff"></path></svg>