<svg id="visual" viewBox="0 0 960 100" width="960" height="100" xmlns="http://www.w3.org/2000/svg" xmlns:xlink="http://www.w3.org/1999/xlink" version="1.1"><rect x="0" y="0" width="960" height="100" fill="#ffffff"></rect><path d="M0 6L5.2 6.2C10.3 6.3 20.7 6.7 31 6.2C41.3 5.7 51.7 4.3 62 3.3C72.3 2.3 82.7 1.7 93 1.8C103.3 2 113.7 3 124 3.8C134.3 4.7 144.7 5.3 155 4.8C165.3 4.3 175.7 2.7 186 3.2C196.3 3.7 206.7 6.3 217 6.2C227.3 6 237.7 3 248 1.5C258.3 0 268.7 0 279 0.8C289.3 1.7 299.7 3.3 310 3.7C320.3 4 330.7 3 341 3.2C351.3 3.3 361.7 4.7 372 4.5C382.3 4.3 392.7 2.7 403 1.8C413.3 1 423.7 1 434 2C444.3 3 454.7 5 464.8 5.7C475 6.3 485 5.7 495.2 4.5C505.3 3.3 515.7 1.7 526 1.8C536.3 2 546.7 4 557 4.3C567.3 4.7 577.7 3.3 588 3.8C598.3 4.3 608.7 6.7 619 7C629.3 7.3 639.7 5.7 650 4.2C660.3 2.7 670.7 1.3 681 1.8C691.3 2.3 701.7 4.7 712 5.3C722.3 6 732.7 5 743 4.8C753.3 4.7 763.7 5.3 774 6C784.3 6.7 794.7 7.3 805 6.5C815.3 5.7 825.7 3.3 836 3.2C846.3 3 856.7 5 867 5.7C877.3 6.3 887.7 5.7 898 5.2C908.3 4.7 918.7 4.3 929 4C939.3 3.7 949.7 3.3 954.8 3.2L960 3" fill="none" stroke-linecap="round" stroke-linejoin="miter" stroke="#0066FF" stroke-width="40"></path></svg>